<?xml version="1.0" encoding="utf-8"?>
<!-- Generator: Adobe Illustrator 19.0.0, SVG Export Plug-In . SVG Version: 6.00 Build 0)  -->
<svg version="1.1" id="Layer_1" xmlns="http://www.w3.org/2000/svg" xmlns:xlink="http://www.w3.org/1999/xlink" x="0px" y="0px"
	 viewBox="0 0 1000 305.5" style="enable-background:new 0 0 1000 305.5;" xml:space="preserve">
<style type="text/css">
	.st0{fill:#0C273D;}
</style>
<g id="XMLID_17_">
	<g id="XMLID_106_">
		<path id="XMLID_121_" class="st0" d="M39.7,151.6l-13.1,2.8v0.9l13.1,2.9l86.4,35.2v31.1L0,166v-23l126.1-58.4v31.1L39.7,151.6z"
			/>
		<path id="XMLID_119_" class="st0" d="M193.4,33.5v40.3h31.7v22.6h-31.7V198c0,7.8,1.6,13.3,4.9,16.5c3.2,3.2,7.5,4.8,12.9,4.8
			c2.7,0,5.7-0.2,9-0.7c3.3-0.5,6.2-1,8.4-1.5l4.2,20.9c-2.9,1.9-7.1,3.4-12.7,4.6c-5.6,1.2-11.1,1.8-16.7,1.8
			c-12.4,0-22.2-3.7-29.5-11.2c-7.3-7.5-11-19.2-11-35.2V96.5h-26.4V73.9h26.4V33.5H193.4z"/>
		<path id="XMLID_117_" class="st0" d="M298.4,93.5l-19.2,3.4l21.8,83.3l3.6,20.3h0.9l4.3-20.3l33.4-106.4h24.4l33.5,106.4l4.8,22.6
			h0.9l4.5-22.6L432,96.9l-19.5-3.4V73.9h63.7v19.6l-14.5,2.2l-42.2,145.5h-24.6l-32.5-101.9l-7-28.1l-0.9,0.2l-6.5,28l-31.8,101.9
			h-24.6L249.4,95.7l-14.7-2.2V73.9h63.7V93.5z"/>
		<path id="XMLID_114_" class="st0" d="M490,221.7l25.2-4.3V97.9L490,93.5V73.9h55.6v143.5l25.2,4.3v19.5H490V221.7z M545.7,31.1
			h-30.5V0h30.5V31.1z"/>
		<path id="XMLID_111_" class="st0" d="M556.1,285.8l25.2-4.3V97.9l-25.2-4.3V73.9h51.3l2.8,20.4c5.6-7.6,12.3-13.4,20.3-17.5
			c8-4,17.2-6,27.8-6c20.7,0,36.8,8.2,48.3,24.7c11.5,16.4,17.2,38.2,17.2,65.2v3.2c0,24.1-5.8,43.6-17.3,58.4
			c-11.5,14.8-27.5,22.2-47.8,22.2c-10.3,0-19.3-1.7-27.1-5.2c-7.8-3.5-14.4-8.6-19.9-15.4v57.7l25.2,4.3v19.6h-80.8V285.8z
			 M693.3,160.6c0-19.1-3.7-34.7-11.1-46.8c-7.4-12.2-18.5-18.2-33.1-18.2c-8.7,0-16.1,2-22.3,5.9c-6.2,3.9-11.2,9.3-15,16.1v81.5
			c3.8,6.9,8.8,12.2,14.9,16c6.1,3.8,13.7,5.6,22.6,5.6c14.4,0,25.4-5.3,32.8-15.8c7.4-10.5,11.1-24.2,11.1-41V160.6z"/>
		<path id="XMLID_109_" class="st0" d="M854.2,126.4h-22.9l-4.9-20.1c-3.7-3.5-8.4-6.3-14-8.4c-5.6-2.1-12-3.2-19.1-3.2
			c-10.8,0-18.9,2.4-24.1,7.1c-5.3,4.7-7.9,10.5-7.9,17.2c0,6.6,2.3,11.8,7,15.6c4.6,3.8,14.1,7.2,28.3,10.2
			c21.1,4.5,36.8,10.7,47.1,18.5c10.3,7.8,15.5,18.2,15.5,31.3c0,14.8-6,26.8-18,36c-12,9.2-27.7,13.8-47.1,13.8
			c-12.7,0-24.1-1.5-34.2-4.4c-10.1-2.9-19.1-7.2-27.1-12.8l-0.2-38.2h22.9l5.7,22.4c3.5,3.2,8.3,5.5,14.3,7
			c6,1.4,12.2,2.2,18.5,2.2c10.8,0,19.3-2.2,25.4-6.6c6.1-4.4,9.2-10.1,9.2-17.2c0-6.7-2.5-12.2-7.7-16.5c-5.1-4.3-14.8-8.1-29-11.3
			c-20.3-4.4-35.6-10.5-45.9-18.1c-10.3-7.6-15.5-17.9-15.5-30.9c0-13.6,5.8-25.2,17.4-34.8c11.6-9.6,26.7-14.4,45.2-14.4
			c12.7,0,24.1,1.7,34.2,4.9c10.1,3.3,18.5,7.9,25.2,13.8L854.2,126.4z"/>
		<path id="XMLID_107_" class="st0" d="M867.8,117.8V87.6l132.2,58.4v23l-132.2,58.6v-30.3l92.4-36.8l13-2.6v-0.9l-13-3.1
			L867.8,117.8z"/>
	</g>
</g>
</svg>
